# Blender v3.0.0 OBJ File: ''
# www.blender.org
mtllib hexPrismInsect.mtl
o Cylinder_Cylinder.001
v -0.429700 -0.232890 -0.861609
v -0.429700 0.096733 -0.861609
v 0.499923 0.096733 -0.861609
v 0.499923 -0.232890 -0.861609
v 0.499923 -0.232890 0.870442
v 0.499923 0.096733 0.870442
v -0.429700 0.096733 0.870442
v -0.429700 -0.232890 0.870442
v -0.482483 -0.232890 0.839968
v -0.482483 0.096733 0.839968
v -0.947294 0.096733 0.034891
v -0.947294 -0.232890 0.034891
v -0.947294 -0.232890 -0.026058
v -0.947294 0.096733 -0.026058
v -0.482483 0.096733 -0.831134
v -0.482483 -0.232890 -0.831134
v 1.017517 -0.232890 0.034891
v 1.017517 0.096733 0.034891
v 0.552706 0.096733 0.839968
v 0.552706 -0.232890 0.839968
v 0.994479 0.131921 0.004417
v 0.514795 0.131921 -0.826420
v -0.444573 0.131921 -0.826420
v -0.924256 0.131921 0.004417
v -0.444572 0.131921 0.835253
v 0.514795 0.131921 0.835254
v 0.552706 -0.232890 -0.831134
v 0.552706 0.096733 -0.831134
v 1.017517 0.096733 -0.026057
v 1.017517 -0.232890 -0.026057
v 0.514795 -0.268079 -0.826420
v 0.506871 -0.263377 -0.843129
v 0.524869 -0.258811 -0.843868
v 0.533228 -0.263377 -0.827912
v 0.501412 -0.250461 -0.856045
v 0.521026 -0.249718 -0.852962
v 0.520342 -0.232890 -0.858400
v 0.539717 -0.232890 -0.847214
v 0.534666 -0.249718 -0.845087
v 0.547143 -0.250461 -0.829642
v 0.533228 0.127220 -0.827912
v 0.524869 0.122654 -0.843868
v 0.506871 0.127220 -0.843129
v 0.547143 0.114304 -0.829642
v 0.534666 0.113560 -0.845087
v 0.539717 0.096733 -0.847214
v 0.520342 0.096733 -0.858400
v 0.521026 0.113560 -0.852962
v 0.501412 0.114304 -0.856045
v 0.994479 -0.268079 0.004417
v 1.004987 -0.263377 -0.010800
v 1.014627 -0.258811 0.004417
v 1.004987 -0.263377 0.019634
v 1.013444 -0.250461 -0.021986
v 1.020580 -0.249718 -0.003458
v 1.024948 -0.232890 -0.006769
v 1.024948 -0.232890 0.015603
v 1.020580 -0.249718 0.012292
v 1.013444 -0.250461 0.030820
v 1.004987 0.127220 0.019634
v 1.014627 0.122654 0.004417
v 1.004987 0.127220 -0.010800
v 1.013444 0.114304 0.030820
v 1.020580 0.113560 0.012292
v 1.024948 0.096733 0.015603
v 1.024948 0.096733 -0.006769
v 1.020580 0.113560 -0.003458
v 1.013444 0.114304 -0.021986
v 0.514795 -0.268079 0.835254
v 0.533228 -0.263377 0.836746
v 0.524869 -0.258811 0.852702
v 0.506871 -0.263377 0.851963
v 0.547143 -0.250461 0.838476
v 0.534666 -0.249718 0.853920
v 0.539717 -0.232890 0.856047
v 0.520342 -0.232890 0.867233
v 0.521026 -0.249718 0.861795
v 0.501412 -0.250461 0.864879
v 0.506871 0.127220 0.851963
v 0.524869 0.122654 0.852702
v 0.533228 0.127220 0.836746
v 0.501412 0.114304 0.864879
v 0.521026 0.113560 0.861795
v 0.520342 0.096733 0.867233
v 0.539717 0.096733 0.856047
v 0.534666 0.113560 0.853920
v 0.547143 0.114304 0.838476
v -0.444572 -0.268079 0.835253
v -0.436648 -0.263377 0.851962
v -0.454646 -0.258811 0.852702
v -0.463005 -0.263377 0.836745
v -0.431189 -0.250461 0.864879
v -0.450803 -0.249718 0.861795
v -0.450120 -0.232890 0.867233
v -0.469494 -0.232890 0.856047
v -0.464443 -0.249718 0.853920
v -0.476920 -0.250461 0.838476
v -0.463005 0.127220 0.836745
v -0.454646 0.122654 0.852702
v -0.436648 0.127220 0.851962
v -0.476920 0.114304 0.838476
v -0.464443 0.113560 0.853920
v -0.469494 0.096733 0.856047
v -0.450120 0.096733 0.867233
v -0.450803 0.113560 0.861795
v -0.431189 0.114304 0.864879
v -0.924256 -0.268079 0.004417
v -0.934765 -0.263377 0.019634
v -0.944404 -0.258811 0.004417
v -0.934765 -0.263377 -0.010801
v -0.943221 -0.250461 0.030820
v -0.950357 -0.249718 0.012292
v -0.954725 -0.232890 0.015602
v -0.954725 -0.232890 -0.006769
v -0.950357 -0.249718 -0.003459
v -0.943221 -0.250461 -0.021986
v -0.934765 0.127220 -0.010801
v -0.944404 0.122654 0.004417
v -0.934765 0.127220 0.019634
v -0.943221 0.114304 -0.021986
v -0.950357 0.113560 -0.003459
v -0.954725 0.096733 -0.006769
v -0.954725 0.096733 0.015602
v -0.950357 0.113560 0.012292
v -0.943221 0.114304 0.030820
v -0.444573 -0.268079 -0.826420
v -0.463005 -0.263377 -0.827912
v -0.454646 -0.258811 -0.843868
v -0.436648 -0.263377 -0.843129
v -0.476920 -0.250461 -0.829642
v -0.464443 -0.249718 -0.845087
v -0.469494 -0.232890 -0.847214
v -0.450119 -0.232890 -0.858400
v -0.450803 -0.249718 -0.852962
v -0.431189 -0.250461 -0.856045
v -0.436648 0.127220 -0.843129
v -0.454646 0.122654 -0.843868
v -0.463005 0.127220 -0.827912
v -0.431189 0.114304 -0.856045
v -0.450803 0.113560 -0.852962
v -0.450119 0.096733 -0.858400
v -0.469494 0.096733 -0.847214
v -0.464443 0.113560 -0.845087
v -0.476920 0.114304 -0.829642
vt 0.160802 0.543986
vt 0.160802 0.956014
vt 0.005865 0.956014
vt 0.005865 0.543986
vt 0.660802 0.543986
vt 0.660802 0.956014
vt 0.505865 0.956014
vt 0.505865 0.543986
vt 0.494135 0.543986
vt 0.494135 0.956014
vt 0.339198 0.956014
vt 0.339198 0.543986
vt 0.327468 0.543986
vt 0.327468 0.956014
vt 0.172531 0.956014
vt 0.172531 0.543986
vt 0.827469 0.543986
vt 0.827469 0.956014
vt 0.672531 0.956014
vt 0.672531 0.543986
vt 0.449401 0.365124
vt 0.250000 0.480248
vt 0.050599 0.365124
vt 0.050599 0.134876
vt 0.250000 0.019752
vt 0.449401 0.134876
vt 0.994135 0.543986
vt 0.994135 0.956014
vt 0.839198 0.956014
vt 0.839198 0.543986
vt 0.750000 0.480248
vt 0.746348 0.482770
vt 0.750000 0.485084
vt 0.753652 0.482770
vt 0.004707 0.505876
vt 0.005616 0.500000
vt 0.002348 0.500000
vt 0.001707 0.511584
vt 0.002461 0.543986
vt 0.002348 0.522951
vt 0.005616 0.522022
vt -0.000000 0.543986
vt -0.000000 0.522951
vt 0.994383 0.522022
vt 0.997653 0.522951
vt 0.997539 0.543986
vt 0.995293 0.500000
vt 0.998293 0.500000
vt -0.000000 0.522951
vt 0.253652 0.482770
vt 0.250000 0.485084
vt 0.246348 0.482770
vt 0.995293 0.994124
vt 0.994383 1.000000
vt 0.997652 1.000000
vt 0.998293 0.988416
vt 0.997538 0.956014
vt 0.997652 0.977049
vt 0.994383 0.977978
vt -0.000768 0.956014
vt -0.000000 0.956014
vt -0.000000 0.977049
vt 0.000074 0.977049
vt 0.005616 0.977978
vt 0.002348 0.977049
vt 0.002461 0.956014
vt 0.004707 1.000000
vt 0.001707 1.000000
vt 1.000000 0.977049
vt 1.000000 0.977049
vt 0.949401 0.365124
vt 0.949759 0.369548
vt 0.953588 0.367542
vt 0.953411 0.363222
vt 0.838040 0.505876
vt 0.838950 0.500000
vt 0.835681 0.500000
vt 0.835040 0.511584
vt 0.835795 0.543986
vt 0.835681 0.522951
vt 0.838950 0.522022
vt 0.833333 0.543986
vt 0.833333 0.522951
vt 0.827717 0.522022
vt 0.830986 0.522951
vt 0.830872 0.543986
vt 0.828627 0.500000
vt 0.831626 0.500000
vt 0.833333 0.522951
vt 0.453411 0.363222
vt 0.453588 0.367542
vt 0.449759 0.369548
vt 0.828627 0.994124
vt 0.827717 1.000000
vt 0.830986 1.000000
vt 0.831626 0.988416
vt 0.830872 0.956014
vt 0.830986 0.977049
vt 0.827717 0.977978
vt 0.833333 0.956014
vt 0.833333 0.977049
vt 0.838950 0.977978
vt 0.835681 0.977049
vt 0.835795 0.956014
vt 0.838040 1.000000
vt 0.835040 1.000000
vt 0.835040 0.988416
vt 0.833333 0.977049
vt 0.949401 0.134876
vt 0.953411 0.136778
vt 0.953588 0.132458
vt 0.949759 0.130452
vt 0.671373 0.505876
vt 0.672283 0.500000
vt 0.669014 0.500000
vt 0.668374 0.511584
vt 0.669128 0.543986
vt 0.669014 0.522951
vt 0.672283 0.522022
vt 0.666667 0.543986
vt 0.666667 0.522951
vt 0.661050 0.522022
vt 0.664319 0.522951
vt 0.664205 0.543986
vt 0.661960 0.500000
vt 0.664960 0.500000
vt 0.664960 0.511584
vt 0.666667 0.522951
vt 0.449759 0.130452
vt 0.453588 0.132458
vt 0.453411 0.136778
vt 0.661960 0.994124
vt 0.661050 1.000000
vt 0.664319 1.000000
vt 0.664960 0.988416
vt 0.664205 0.956014
vt 0.664319 0.977049
vt 0.661050 0.977978
vt 0.666667 0.956014
vt 0.666667 0.977049
vt 0.672283 0.977978
vt 0.669014 0.977049
vt 0.669128 0.956014
vt 0.671373 1.000000
vt 0.668374 1.000000
vt 0.666667 0.977049
vt 0.750000 0.019752
vt 0.753652 0.017230
vt 0.750000 0.014916
vt 0.746348 0.017230
vt 0.504707 0.505876
vt 0.505616 0.500000
vt 0.502348 0.500000
vt 0.501707 0.511584
vt 0.502461 0.543986
vt 0.502348 0.522951
vt 0.505617 0.522022
vt 0.500000 0.543986
vt 0.500000 0.522951
vt 0.494383 0.522022
vt 0.497652 0.522951
vt 0.497538 0.543986
vt 0.495293 0.500000
vt 0.498293 0.500000
vt 0.500000 0.522951
vt 0.246348 0.017230
vt 0.250000 0.014916
vt 0.253652 0.017230
vt 0.495293 0.994124
vt 0.494383 1.000000
vt 0.497652 1.000000
vt 0.498293 0.988416
vt 0.497538 0.956014
vt 0.497652 0.977049
vt 0.494383 0.977978
vt 0.500000 0.956014
vt 0.500000 0.977049
vt 0.505617 0.977978
vt 0.502348 0.977049
vt 0.502461 0.956014
vt 0.504707 1.000000
vt 0.501707 1.000000
vt 0.500000 0.977049
vt 0.550599 0.134876
vt 0.550241 0.130452
vt 0.546412 0.132458
vt 0.546589 0.136778
vt 0.338040 0.505876
vt 0.338950 0.500000
vt 0.335681 0.500000
vt 0.335040 0.511584
vt 0.335795 0.543986
vt 0.335681 0.522951
vt 0.338950 0.522022
vt 0.333333 0.543986
vt 0.333333 0.522951
vt 0.327717 0.522022
vt 0.330986 0.522951
vt 0.330872 0.543986
vt 0.328627 0.500000
vt 0.331626 0.500000
vt 0.331626 0.511584
vt 0.333333 0.522951
vt 0.046589 0.136778
vt 0.046412 0.132458
vt 0.050241 0.130452
vt 0.328627 0.994124
vt 0.327717 1.000000
vt 0.330986 1.000000
vt 0.331626 0.988416
vt 0.330872 0.956014
vt 0.330986 0.977049
vt 0.327717 0.977978
vt 0.333333 0.956014
vt 0.333333 0.977049
vt 0.338950 0.977978
vt 0.335681 0.977049
vt 0.335795 0.956014
vt 0.338040 1.000000
vt 0.335040 1.000000
vt 0.333333 0.977049
vt 0.550599 0.365124
vt 0.546589 0.363222
vt 0.546412 0.367542
vt 0.550241 0.369548
vt 0.171373 0.505876
vt 0.172283 0.500000
vt 0.169014 0.500000
vt 0.168374 0.511584
vt 0.169128 0.543986
vt 0.169014 0.522951
vt 0.172283 0.522022
vt 0.166667 0.543986
vt 0.166667 0.522951
vt 0.161050 0.522022
vt 0.164319 0.522951
vt 0.164205 0.543986
vt 0.161960 0.500000
vt 0.164960 0.500000
vt 0.166667 0.522951
vt 0.050241 0.369548
vt 0.046412 0.367542
vt 0.046589 0.363222
vt 0.161960 0.994124
vt 0.161050 1.000000
vt 0.164319 1.000000
vt 0.164960 0.988416
vt 0.164205 0.956014
vt 0.164319 0.977049
vt 0.161050 0.977978
vt 0.166667 0.956014
vt 0.166667 0.977049
vt 0.172283 0.977978
vt 0.169014 0.977049
vt 0.169128 0.956014
vt 0.171373 1.000000
vt 0.168374 1.000000
vt 0.168374 0.988416
vt 0.166667 0.977049
vt 0.838040 0.500000
vt 0.995293 1.000000
vt -0.000000 0.956014
vt 0.671373 0.500000
vt 0.828627 1.000000
vt 0.504707 0.500000
vt 0.661960 1.000000
vt 0.338040 0.500000
vt 0.495293 1.000000
vt 0.171373 0.500000
vt 0.328627 1.000000
vt 0.004707 0.500000
vt 0.161960 1.000000
vn 0.0000 0.0000 -1.0000
vn 0.0000 -0.0000 1.0000
vn -0.8660 -0.0000 0.5000
vn -0.8660 0.0000 -0.5000
vn 0.8660 -0.0000 0.5000
vn -0.0000 1.0000 0.0000
vn 0.8660 -0.0000 -0.5000
vn 0.2090 -0.9085 -0.3619
vn 0.1400 -0.6700 -0.7291
vn 0.1538 -0.2922 -0.9439
vn 0.4840 -0.2512 -0.8383
vn 0.7406 -0.2922 -0.6051
vn 0.5614 -0.6699 -0.4858
vn 0.4183 -0.5478 -0.7245
vn 0.2089 0.9085 -0.3619
vn 0.5614 0.6699 -0.4858
vn 0.7406 0.2922 -0.6051
vn 0.4840 0.2512 -0.8383
vn 0.1538 0.2922 -0.9439
vn 0.1400 0.6699 -0.7291
vn 0.4183 0.5478 -0.7245
vn 0.4179 -0.9085 0.0000
vn 0.7014 -0.6699 -0.2433
vn 0.8944 -0.2922 -0.3388
vn 0.9679 -0.2512 0.0000
vn 0.8944 -0.2922 0.3388
vn 0.7014 -0.6699 0.2433
vn 0.8366 -0.5477 0.0000
vn 0.4179 0.9085 0.0000
vn 0.7014 0.6699 0.2433
vn 0.8944 0.2922 0.3388
vn 0.9679 0.2513 0.0000
vn 0.8944 0.2922 -0.3388
vn 0.7014 0.6699 -0.2433
vn 0.8367 0.5477 0.0000
vn 0.2090 -0.9085 0.3619
vn 0.5614 -0.6699 0.4858
vn 0.7406 -0.2922 0.6052
vn 0.4840 -0.2512 0.8383
vn 0.1538 -0.2922 0.9439
vn 0.1400 -0.6699 0.7291
vn 0.4183 -0.5477 0.7246
vn 0.2089 0.9085 0.3619
vn 0.1400 0.6699 0.7291
vn 0.1538 0.2922 0.9439
vn 0.4840 0.2512 0.8383
vn 0.7406 0.2922 0.6052
vn 0.5614 0.6699 0.4858
vn 0.4183 0.5477 0.7246
vn -0.2089 -0.9085 0.3619
vn -0.1400 -0.6700 0.7291
vn -0.1538 -0.2922 0.9439
vn -0.4840 -0.2512 0.8382
vn -0.7406 -0.2922 0.6052
vn -0.5614 -0.6699 0.4858
vn -0.4183 -0.5478 0.7246
vn -0.2089 0.9085 0.3619
vn -0.5614 0.6699 0.4858
vn -0.7406 0.2922 0.6052
vn -0.4840 0.2512 0.8382
vn -0.1538 0.2922 0.9439
vn -0.1400 0.6699 0.7291
vn -0.4183 0.5477 0.7246
vn -0.4179 -0.9085 0.0000
vn -0.7014 -0.6699 0.2433
vn -0.8944 -0.2922 0.3388
vn -0.9679 -0.2512 0.0000
vn -0.8944 -0.2922 -0.3388
vn -0.7014 -0.6699 -0.2433
vn -0.8367 -0.5477 0.0000
vn -0.4179 0.9085 0.0000
vn -0.7015 0.6699 -0.2433
vn -0.8944 0.2922 -0.3388
vn -0.9679 0.2513 0.0000
vn -0.8944 0.2922 0.3388
vn -0.7015 0.6699 0.2433
vn -0.8367 0.5477 0.0000
vn -0.2090 -0.9085 -0.3619
vn -0.5614 -0.6699 -0.4858
vn -0.7406 -0.2922 -0.6051
vn -0.4840 -0.2512 -0.8383
vn -0.1538 -0.2922 -0.9439
vn -0.1400 -0.6699 -0.7291
vn -0.4183 -0.5478 -0.7245
vn -0.2089 0.9085 -0.3619
vn -0.1400 0.6699 -0.7291
vn -0.1538 0.2922 -0.9439
vn -0.4840 0.2512 -0.8383
vn -0.7406 0.2922 -0.6051
vn -0.5614 0.6699 -0.4858
vn -0.4183 0.5478 -0.7245
vn 0.8256 -0.3018 -0.4767
vn 0.6124 -0.7071 -0.3536
vn 0.2346 -0.9626 -0.1354
vn 0.8256 0.3018 -0.4767
vn 0.6124 0.7071 -0.3535
vn 0.2345 0.9626 -0.1354
vn 0.1552 0.0000 -0.9879
vn 0.5000 0.0000 -0.8660
vn 0.7779 0.0000 -0.6284
vn 0.9331 0.0000 0.3595
vn 1.0000 0.0000 0.0000
vn 0.9331 0.0000 -0.3595
vn 0.8256 -0.3018 0.4767
vn 0.6124 -0.7071 0.3535
vn 0.2346 -0.9626 0.1354
vn 0.8256 0.3018 0.4767
vn 0.6124 0.7071 0.3535
vn 0.2345 0.9626 0.1354
vn 0.1552 -0.0000 0.9879
vn 0.5000 -0.0000 0.8660
vn 0.7779 -0.0000 0.6284
vn 0.0000 -0.3018 0.9534
vn -0.0000 -0.7071 0.7071
vn -0.0000 -0.9626 0.2709
vn 0.0000 0.3018 0.9534
vn -0.0000 0.7071 0.7071
vn -0.0000 0.9626 0.2708
vn -0.7779 -0.0000 0.6284
vn -0.5000 -0.0000 0.8660
vn -0.1552 -0.0000 0.9879
vn -0.8256 -0.3018 0.4767
vn -0.6124 -0.7071 0.3536
vn -0.2346 -0.9626 0.1354
vn -0.8256 0.3018 0.4767
vn -0.6124 0.7071 0.3536
vn -0.2345 0.9626 0.1354
vn -0.9331 -0.0000 -0.3595
vn -1.0000 0.0000 0.0000
vn -0.9331 -0.0000 0.3595
vn -0.8256 -0.3019 -0.4767
vn -0.6124 -0.7071 -0.3536
vn -0.2346 -0.9626 -0.1354
vn -0.8256 0.3019 -0.4767
vn -0.6124 0.7071 -0.3536
vn -0.2345 0.9626 -0.1354
vn -0.1552 0.0000 -0.9879
vn -0.5000 0.0000 -0.8660
vn -0.7779 0.0000 -0.6284
vn 0.0000 -0.3019 -0.9533
vn 0.0000 -0.7071 -0.7071
vn 0.0000 -0.9626 -0.2709
vn 0.0000 0.3019 -0.9533
vn 0.0000 0.7071 -0.7071
vn 0.0000 0.9626 -0.2708
vn 0.0000 -1.0000 -0.0000
usemtl None
s 1
f 1/1/1 2/2/1 3/3/1 4/4/1
f 5/5/2 6/6/2 7/7/2 8/8/2
f 9/9/3 10/10/3 11/11/3 12/12/3
f 13/13/4 14/14/4 15/15/4 16/16/4
f 17/17/5 18/18/5 19/19/5 20/20/5
f 21/21/6 22/22/6 23/23/6 24/24/6 25/25/6 26/26/6
f 27/27/7 28/28/7 29/29/7 30/30/7
f 31/31/8 32/32/8 33/33/8 34/34/8
f 32/35/9 35/36/9 36/37/9 33/38/9
f 4/4/10 37/39/10 36/40/10 35/41/10
f 37/39/11 38/42/11 39/43/11 36/40/11
f 27/27/12 40/44/12 39/45/12 38/46/12
f 40/44/13 34/47/13 33/48/13 39/45/13
f 33/38/14 36/49/14 39/43/14
f 22/22/15 41/50/15 42/51/15 43/52/15
f 41/53/16 44/54/16 45/55/16 42/56/16
f 28/28/17 46/57/17 45/58/17 44/59/17
f 46/60/18 47/61/18 48/62/18 45/63/18
f 3/3/19 49/64/19 48/65/19 47/66/19
f 49/64/20 43/67/20 42/68/20 48/65/20
f 42/56/21 45/69/21 48/70/21
f 50/71/22 51/72/22 52/73/22 53/74/22
f 51/75/23 54/76/23 55/77/23 52/78/23
f 30/30/24 56/79/24 55/80/24 54/81/24
f 56/79/25 57/82/25 58/83/25 55/80/25
f 17/17/26 59/84/26 58/85/26 57/86/26
f 59/84/27 53/87/27 52/88/27 58/85/27
f 52/78/28 55/89/28 58/83/28
f 21/21/29 60/90/29 61/91/29 62/92/29
f 60/93/30 63/94/30 64/95/30 61/96/30
f 18/18/31 65/97/31 64/98/31 63/99/31
f 65/97/32 66/100/32 67/101/32 64/98/32
f 29/29/33 68/102/33 67/103/33 66/104/33
f 68/102/34 62/105/34 61/106/34 67/103/34
f 61/107/35 64/108/35 67/101/35
f 69/109/36 70/110/36 71/111/36 72/112/36
f 70/113/37 73/114/37 74/115/37 71/116/37
f 20/20/38 75/117/38 74/118/38 73/119/38
f 75/117/39 76/120/39 77/121/39 74/118/39
f 5/5/40 78/122/40 77/123/40 76/124/40
f 78/122/41 72/125/41 71/126/41 77/123/41
f 71/127/42 74/128/42 77/121/42
f 26/26/43 79/129/43 80/130/43 81/131/43
f 79/132/44 82/133/44 83/134/44 80/135/44
f 6/6/45 84/136/45 83/137/45 82/138/45
f 84/136/46 85/139/46 86/140/46 83/137/46
f 19/19/47 87/141/47 86/142/47 85/143/47
f 87/141/48 81/144/48 80/145/48 86/142/48
f 80/135/49 83/146/49 86/140/49
f 88/147/50 89/148/50 90/149/50 91/150/50
f 89/151/51 92/152/51 93/153/51 90/154/51
f 8/8/52 94/155/52 93/156/52 92/157/52
f 94/155/53 95/158/53 96/159/53 93/156/53
f 9/9/54 97/160/54 96/161/54 95/162/54
f 97/160/55 91/163/55 90/164/55 96/161/55
f 90/154/56 93/165/56 96/159/56
f 25/25/57 98/166/57 99/167/57 100/168/57
f 98/169/58 101/170/58 102/171/58 99/172/58
f 10/10/59 103/173/59 102/174/59 101/175/59
f 103/173/60 104/176/60 105/177/60 102/174/60
f 7/7/61 106/178/61 105/179/61 104/180/61
f 106/178/62 100/181/62 99/182/62 105/179/62
f 99/172/63 102/183/63 105/177/63
f 107/184/64 108/185/64 109/186/64 110/187/64
f 108/188/65 111/189/65 112/190/65 109/191/65
f 12/12/66 113/192/66 112/193/66 111/194/66
f 113/192/67 114/195/67 115/196/67 112/193/67
f 13/13/68 116/197/68 115/198/68 114/199/68
f 116/197/69 110/200/69 109/201/69 115/198/69
f 109/202/70 112/203/70 115/196/70
f 24/24/71 117/204/71 118/205/71 119/206/71
f 117/207/72 120/208/72 121/209/72 118/210/72
f 14/14/73 122/211/73 121/212/73 120/213/73
f 122/211/74 123/214/74 124/215/74 121/212/74
f 11/11/75 125/216/75 124/217/75 123/218/75
f 125/216/76 119/219/76 118/220/76 124/217/76
f 118/210/77 121/221/77 124/215/77
f 126/222/78 127/223/78 128/224/78 129/225/78
f 127/226/79 130/227/79 131/228/79 128/229/79
f 16/16/80 132/230/80 131/231/80 130/232/80
f 132/230/81 133/233/81 134/234/81 131/231/81
f 1/1/82 135/235/82 134/236/82 133/237/82
f 135/235/83 129/238/83 128/239/83 134/236/83
f 128/229/84 131/240/84 134/234/84
f 23/23/85 136/241/85 137/242/85 138/243/85
f 136/244/86 139/245/86 140/246/86 137/247/86
f 2/2/87 141/248/87 140/249/87 139/250/87
f 141/248/88 142/251/88 143/252/88 140/249/88
f 15/15/89 144/253/89 143/254/89 142/255/89
f 144/253/90 138/256/90 137/257/90 143/254/90
f 137/258/91 140/259/91 143/252/91
f 27/27/92 30/30/92 54/81/92 40/44/92
f 40/44/93 54/81/93 51/260/93 34/47/93
f 34/34/94 51/72/94 50/71/94 31/31/94
f 29/29/95 28/28/95 44/59/95 68/102/95
f 68/102/96 44/59/96 41/261/96 62/105/96
f 62/92/97 41/50/97 22/22/97 21/21/97
f 4/4/98 3/3/98 47/66/98 37/39/98
f 37/39/99 47/66/99 46/262/99 38/42/99
f 38/46/100 46/57/100 28/28/100 27/27/100
f 18/18/101 17/17/101 57/86/101 65/97/101
f 65/97/102 57/86/102 56/79/102 66/104/102
f 66/104/103 56/79/103 30/30/103 29/29/103
f 17/17/104 20/20/104 73/119/104 59/84/104
f 59/84/105 73/119/105 70/263/105 53/87/105
f 53/74/106 70/110/106 69/109/106 50/71/106
f 19/19/107 18/18/107 63/99/107 87/141/107
f 87/141/108 63/99/108 60/264/108 81/144/108
f 81/131/109 60/90/109 21/21/109 26/26/109
f 6/6/110 5/5/110 76/124/110 84/136/110
f 84/136/111 76/124/111 75/117/111 85/143/111
f 85/143/112 75/117/112 20/20/112 19/19/112
f 5/5/113 8/8/113 92/157/113 78/122/113
f 78/122/114 92/157/114 89/265/114 72/125/114
f 72/112/115 89/148/115 88/147/115 69/109/115
f 7/7/116 6/6/116 82/138/116 106/178/116
f 106/178/117 82/138/117 79/266/117 100/181/117
f 100/168/118 79/129/118 26/26/118 25/25/118
f 10/10/119 9/9/119 95/162/119 103/173/119
f 103/173/120 95/162/120 94/155/120 104/180/120
f 104/180/121 94/155/121 8/8/121 7/7/121
f 9/9/122 12/12/122 111/194/122 97/160/122
f 97/160/123 111/194/123 108/267/123 91/163/123
f 91/150/124 108/185/124 107/184/124 88/147/124
f 11/11/125 10/10/125 101/175/125 125/216/125
f 125/216/126 101/175/126 98/268/126 119/219/126
f 119/206/127 98/166/127 25/25/127 24/24/127
f 14/14/128 13/13/128 114/199/128 122/211/128
f 122/211/129 114/199/129 113/192/129 123/218/129
f 123/218/130 113/192/130 12/12/130 11/11/130
f 13/13/131 16/16/131 130/232/131 116/197/131
f 116/197/132 130/232/132 127/269/132 110/200/132
f 110/187/133 127/223/133 126/222/133 107/184/133
f 15/15/134 14/14/134 120/213/134 144/253/134
f 144/253/135 120/213/135 117/270/135 138/256/135
f 138/243/136 117/204/136 24/24/136 23/23/136
f 2/2/137 1/1/137 133/237/137 141/248/137
f 141/248/138 133/237/138 132/230/138 142/255/138
f 142/255/139 132/230/139 16/16/139 15/15/139
f 1/1/140 4/4/140 35/41/140 135/235/140
f 135/235/141 35/41/141 32/271/141 129/238/141
f 129/225/142 32/32/142 31/31/142 126/222/142
f 3/3/143 2/2/143 139/250/143 49/64/143
f 49/64/144 139/250/144 136/272/144 43/67/144
f 43/52/145 136/241/145 23/23/145 22/22/145
f 31/31/146 50/71/146 69/109/146 88/147/146 107/184/146 126/222/146
