# Blender v3.0.0 OBJ File: 'hivePrism.blend'
# www.blender.org
mtllib hivePrism.mtl
o Cylinder_Cylinder.001
v 0.514795 -0.268079 -0.826420
v 0.499923 -0.232890 -0.861609
v 0.552706 -0.232890 -0.831134
v 0.506871 -0.263377 -0.843129
v 0.533228 -0.263377 -0.827912
v 0.524869 -0.258811 -0.843868
v 0.520342 -0.232890 -0.858400
v 0.501412 -0.250461 -0.856045
v 0.521026 -0.249718 -0.852962
v 0.547143 -0.250461 -0.829642
v 0.539717 -0.232890 -0.847214
v 0.534666 -0.249718 -0.845087
v 0.514795 0.131921 -0.826420
v 0.552706 0.096733 -0.831134
v 0.499923 0.096733 -0.861609
v 0.533228 0.127220 -0.827912
v 0.506871 0.127220 -0.843129
v 0.524869 0.122654 -0.843868
v 0.539717 0.096733 -0.847214
v 0.547143 0.114304 -0.829642
v 0.534666 0.113560 -0.845087
v 0.501412 0.114304 -0.856045
v 0.520342 0.096733 -0.858400
v 0.521026 0.113560 -0.852962
v 0.994479 -0.268079 0.004417
v 1.017517 -0.232890 -0.026057
v 1.017517 -0.232890 0.034891
v 1.004987 -0.263377 -0.010800
v 1.004987 -0.263377 0.019634
v 1.014627 -0.258811 0.004417
v 1.024948 -0.232890 -0.006769
v 1.013444 -0.250461 -0.021986
v 1.020580 -0.249718 -0.003458
v 1.013444 -0.250461 0.030820
v 1.024948 -0.232890 0.015603
v 1.020580 -0.249718 0.012292
v 0.994479 0.131921 0.004417
v 1.017517 0.096733 0.034891
v 1.017517 0.096733 -0.026057
v 1.004987 0.127220 0.019634
v 1.004987 0.127220 -0.010800
v 1.014627 0.122654 0.004417
v 1.024948 0.096733 0.015603
v 1.013444 0.114304 0.030820
v 1.020580 0.113560 0.012292
v 1.013444 0.114304 -0.021986
v 1.024948 0.096733 -0.006769
v 1.020580 0.113560 -0.003458
v 0.514795 -0.268079 0.835254
v 0.552706 -0.232890 0.839968
v 0.499923 -0.232890 0.870442
v 0.533228 -0.263377 0.836746
v 0.506871 -0.263377 0.851963
v 0.524869 -0.258811 0.852702
v 0.539717 -0.232890 0.856047
v 0.547143 -0.250461 0.838476
v 0.534666 -0.249718 0.853920
v 0.501412 -0.250461 0.864879
v 0.520342 -0.232890 0.867233
v 0.521026 -0.249718 0.861795
v 0.514795 0.131921 0.835254
v 0.499923 0.096733 0.870442
v 0.552706 0.096733 0.839968
v 0.506871 0.127220 0.851963
v 0.533228 0.127220 0.836746
v 0.524869 0.122654 0.852702
v 0.520342 0.096733 0.867233
v 0.501412 0.114304 0.864879
v 0.521026 0.113560 0.861795
v 0.547143 0.114304 0.838476
v 0.539717 0.096733 0.856047
v 0.534666 0.113560 0.853920
v -0.444572 -0.268079 0.835253
v -0.429700 -0.232890 0.870442
v -0.482483 -0.232890 0.839968
v -0.436648 -0.263377 0.851962
v -0.463005 -0.263377 0.836745
v -0.454646 -0.258811 0.852702
v -0.450120 -0.232890 0.867233
v -0.431189 -0.250461 0.864879
v -0.450803 -0.249718 0.861795
v -0.476920 -0.250461 0.838476
v -0.469494 -0.232890 0.856047
v -0.464443 -0.249718 0.853920
v -0.444572 0.131921 0.835253
v -0.482483 0.096733 0.839968
v -0.429700 0.096733 0.870442
v -0.463005 0.127220 0.836745
v -0.436648 0.127220 0.851962
v -0.454646 0.122654 0.852702
v -0.469494 0.096733 0.856047
v -0.476920 0.114304 0.838476
v -0.464443 0.113560 0.853920
v -0.431189 0.114304 0.864879
v -0.450120 0.096733 0.867233
v -0.450803 0.113560 0.861795
v -0.924256 -0.268079 0.004417
v -0.947294 -0.232890 0.034891
v -0.947294 -0.232890 -0.026058
v -0.934765 -0.263377 0.019634
v -0.934765 -0.263377 -0.010801
v -0.944404 -0.258811 0.004417
v -0.954725 -0.232890 0.015602
v -0.943221 -0.250461 0.030820
v -0.950357 -0.249718 0.012292
v -0.943221 -0.250461 -0.021986
v -0.954725 -0.232890 -0.006769
v -0.950357 -0.249718 -0.003459
v -0.924256 0.131921 0.004417
v -0.947294 0.096733 -0.026058
v -0.947294 0.096733 0.034891
v -0.934765 0.127220 -0.010801
v -0.934765 0.127220 0.019634
v -0.944404 0.122654 0.004417
v -0.954725 0.096733 -0.006769
v -0.943221 0.114304 -0.021986
v -0.950357 0.113560 -0.003459
v -0.943221 0.114304 0.030820
v -0.954725 0.096733 0.015602
v -0.950357 0.113560 0.012292
v -0.444573 -0.268079 -0.826420
v -0.482483 -0.232890 -0.831134
v -0.429700 -0.232890 -0.861609
v -0.463005 -0.263377 -0.827912
v -0.436648 -0.263377 -0.843129
v -0.454646 -0.258811 -0.843868
v -0.469494 -0.232890 -0.847214
v -0.476920 -0.250461 -0.829642
v -0.464443 -0.249718 -0.845087
v -0.431189 -0.250461 -0.856045
v -0.450119 -0.232890 -0.858400
v -0.450803 -0.249718 -0.852962
v -0.444573 0.131921 -0.826420
v -0.429700 0.096733 -0.861609
v -0.482483 0.096733 -0.831134
v -0.436648 0.127220 -0.843129
v -0.463005 0.127220 -0.827912
v -0.454646 0.122654 -0.843868
v -0.450119 0.096733 -0.858400
v -0.431189 0.114304 -0.856045
v -0.450803 0.113560 -0.852962
v -0.476920 0.114304 -0.829642
v -0.469494 0.096733 -0.847214
v -0.464443 0.113560 -0.845087
vt 0.160802 0.543986
vt 0.160802 0.956014
vt 0.005865 0.956014
vt 0.005865 0.543986
vt 0.660802 0.543986
vt 0.660802 0.956014
vt 0.505865 0.956014
vt 0.505865 0.543986
vt 0.494135 0.543986
vt 0.494135 0.956014
vt 0.339198 0.956014
vt 0.339198 0.543986
vt 0.327468 0.543986
vt 0.327468 0.956014
vt 0.172531 0.956014
vt 0.172531 0.543986
vt 0.827469 0.543986
vt 0.827469 0.956014
vt 0.672531 0.956014
vt 0.672531 0.543986
vt 0.449401 0.365124
vt 0.250000 0.480248
vt 0.050599 0.365124
vt 0.050599 0.134876
vt 0.250000 0.019752
vt 0.449401 0.134876
vt 0.994135 0.543986
vt 0.994135 0.956014
vt 0.839198 0.956014
vt 0.839198 0.543986
vt 0.750000 0.480248
vt 0.746348 0.482770
vt 0.750000 0.485084
vt 0.753652 0.482770
vt 0.004707 0.505876
vt 0.005616 0.500000
vt 0.002348 0.500000
vt 0.001707 0.511584
vt 0.002461 0.543986
vt 0.002348 0.522951
vt 0.005616 0.522022
vt -0.000000 0.543986
vt -0.000000 0.522951
vt 0.994383 0.522022
vt 0.997653 0.522951
vt 0.997539 0.543986
vt 0.995293 0.500000
vt 0.998293 0.500000
vt -0.000000 0.522951
vt 0.253652 0.482770
vt 0.250000 0.485084
vt 0.246348 0.482770
vt 0.995293 0.994124
vt 0.994383 1.000000
vt 0.997652 1.000000
vt 0.998293 0.988416
vt 0.997538 0.956014
vt 0.997652 0.977049
vt 0.994383 0.977978
vt -0.000768 0.956014
vt -0.000000 0.956014
vt -0.000000 0.977049
vt 0.000074 0.977049
vt 0.005616 0.977978
vt 0.002348 0.977049
vt 0.002461 0.956014
vt 0.004707 1.000000
vt 0.001707 1.000000
vt 1.000000 0.977049
vt 1.000000 0.977049
vt 0.949401 0.365124
vt 0.949759 0.369548
vt 0.953588 0.367542
vt 0.953411 0.363222
vt 0.838040 0.505876
vt 0.838950 0.500000
vt 0.835681 0.500000
vt 0.835040 0.511584
vt 0.835795 0.543986
vt 0.835681 0.522951
vt 0.838950 0.522022
vt 0.833333 0.543986
vt 0.833333 0.522951
vt 0.827717 0.522022
vt 0.830986 0.522951
vt 0.830872 0.543986
vt 0.828627 0.500000
vt 0.831626 0.500000
vt 0.833333 0.522951
vt 0.453411 0.363222
vt 0.453588 0.367542
vt 0.449759 0.369548
vt 0.828627 0.994124
vt 0.827717 1.000000
vt 0.830986 1.000000
vt 0.831626 0.988416
vt 0.830872 0.956014
vt 0.830986 0.977049
vt 0.827717 0.977978
vt 0.833333 0.956014
vt 0.833333 0.977049
vt 0.838950 0.977978
vt 0.835681 0.977049
vt 0.835795 0.956014
vt 0.838040 1.000000
vt 0.835040 1.000000
vt 0.835040 0.988416
vt 0.833333 0.977049
vt 0.949401 0.134876
vt 0.953411 0.136778
vt 0.953588 0.132458
vt 0.949759 0.130452
vt 0.671373 0.505876
vt 0.672283 0.500000
vt 0.669014 0.500000
vt 0.668374 0.511584
vt 0.669128 0.543986
vt 0.669014 0.522951
vt 0.672283 0.522022
vt 0.666667 0.543986
vt 0.666667 0.522951
vt 0.661050 0.522022
vt 0.664319 0.522951
vt 0.664205 0.543986
vt 0.661960 0.500000
vt 0.664960 0.500000
vt 0.664960 0.511584
vt 0.666667 0.522951
vt 0.449759 0.130452
vt 0.453588 0.132458
vt 0.453411 0.136778
vt 0.661960 0.994124
vt 0.661050 1.000000
vt 0.664319 1.000000
vt 0.664960 0.988416
vt 0.664205 0.956014
vt 0.664319 0.977049
vt 0.661050 0.977978
vt 0.666667 0.956014
vt 0.666667 0.977049
vt 0.672283 0.977978
vt 0.669014 0.977049
vt 0.669128 0.956014
vt 0.671373 1.000000
vt 0.668374 1.000000
vt 0.666667 0.977049
vt 0.750000 0.019752
vt 0.753652 0.017230
vt 0.750000 0.014916
vt 0.746348 0.017230
vt 0.504707 0.505876
vt 0.505616 0.500000
vt 0.502348 0.500000
vt 0.501707 0.511584
vt 0.502461 0.543986
vt 0.502348 0.522951
vt 0.505617 0.522022
vt 0.500000 0.543986
vt 0.500000 0.522951
vt 0.494383 0.522022
vt 0.497652 0.522951
vt 0.497538 0.543986
vt 0.495293 0.500000
vt 0.498293 0.500000
vt 0.500000 0.522951
vt 0.246348 0.017230
vt 0.250000 0.014916
vt 0.253652 0.017230
vt 0.495293 0.994124
vt 0.494383 1.000000
vt 0.497652 1.000000
vt 0.498293 0.988416
vt 0.497538 0.956014
vt 0.497652 0.977049
vt 0.494383 0.977978
vt 0.500000 0.956014
vt 0.500000 0.977049
vt 0.505617 0.977978
vt 0.502348 0.977049
vt 0.502461 0.956014
vt 0.504707 1.000000
vt 0.501707 1.000000
vt 0.500000 0.977049
vt 0.550599 0.134876
vt 0.550241 0.130452
vt 0.546412 0.132458
vt 0.546589 0.136778
vt 0.338040 0.505876
vt 0.338950 0.500000
vt 0.335681 0.500000
vt 0.335040 0.511584
vt 0.335795 0.543986
vt 0.335681 0.522951
vt 0.338950 0.522022
vt 0.333333 0.543986
vt 0.333333 0.522951
vt 0.327717 0.522022
vt 0.330986 0.522951
vt 0.330872 0.543986
vt 0.328627 0.500000
vt 0.331626 0.500000
vt 0.331626 0.511584
vt 0.333333 0.522951
vt 0.046589 0.136778
vt 0.046412 0.132458
vt 0.050241 0.130452
vt 0.328627 0.994124
vt 0.327717 1.000000
vt 0.330986 1.000000
vt 0.331626 0.988416
vt 0.330872 0.956014
vt 0.330986 0.977049
vt 0.327717 0.977978
vt 0.333333 0.956014
vt 0.333333 0.977049
vt 0.338950 0.977978
vt 0.335681 0.977049
vt 0.335795 0.956014
vt 0.338040 1.000000
vt 0.335040 1.000000
vt 0.333333 0.977049
vt 0.550599 0.365124
vt 0.546589 0.363222
vt 0.546412 0.367542
vt 0.550241 0.369548
vt 0.171373 0.505876
vt 0.172283 0.500000
vt 0.169014 0.500000
vt 0.168374 0.511584
vt 0.169128 0.543986
vt 0.169014 0.522951
vt 0.172283 0.522022
vt 0.166667 0.543986
vt 0.166667 0.522951
vt 0.161050 0.522022
vt 0.164319 0.522951
vt 0.164205 0.543986
vt 0.161960 0.500000
vt 0.164960 0.500000
vt 0.166667 0.522951
vt 0.050241 0.369548
vt 0.046412 0.367542
vt 0.046589 0.363222
vt 0.161960 0.994124
vt 0.161050 1.000000
vt 0.164319 1.000000
vt 0.164960 0.988416
vt 0.164205 0.956014
vt 0.164319 0.977049
vt 0.161050 0.977978
vt 0.166667 0.956014
vt 0.166667 0.977049
vt 0.172283 0.977978
vt 0.169014 0.977049
vt 0.169128 0.956014
vt 0.171373 1.000000
vt 0.168374 1.000000
vt 0.168374 0.988416
vt 0.166667 0.977049
vt 0.838040 0.500000
vt 0.995293 1.000000
vt -0.000000 0.956014
vt 0.671373 0.500000
vt 0.828627 1.000000
vt 0.504707 0.500000
vt 0.661960 1.000000
vt 0.338040 0.500000
vt 0.495293 1.000000
vt 0.171373 0.500000
vt 0.328627 1.000000
vt 0.004707 0.500000
vt 0.161960 1.000000
vn -0.0000 0.0000 -1.0000
vn -0.0000 0.0000 1.0000
vn -0.8660 0.0000 0.5000
vn -0.8660 0.0000 -0.5000
vn 0.8660 0.0000 0.5000
vn 0.0000 1.0000 0.0000
vn 0.8660 0.0000 -0.5000
vn 0.2089 -0.9085 -0.3619
vn 0.1400 -0.6699 -0.7291
vn 0.1538 -0.2922 -0.9439
vn 0.4840 -0.2512 -0.8383
vn 0.7406 -0.2922 -0.6052
vn 0.5614 -0.6699 -0.4858
vn 0.4183 -0.5478 -0.7246
vn 0.2089 0.9085 -0.3619
vn 0.5614 0.6699 -0.4858
vn 0.7406 0.2922 -0.6052
vn 0.4840 0.2512 -0.8383
vn 0.1538 0.2922 -0.9439
vn 0.1400 0.6699 -0.7291
vn 0.4183 0.5478 -0.7246
vn 0.4179 -0.9085 0.0000
vn 0.7014 -0.6699 -0.2433
vn 0.8944 -0.2921 -0.3388
vn 0.9679 -0.2512 0.0000
vn 0.8944 -0.2921 0.3388
vn 0.7014 -0.6699 0.2433
vn 0.8366 -0.5477 0.0000
vn 0.4179 0.9085 0.0000
vn 0.7014 0.6699 0.2433
vn 0.8944 0.2922 0.3388
vn 0.9679 0.2512 -0.0000
vn 0.8944 0.2922 -0.3388
vn 0.7014 0.6699 -0.2433
vn 0.8366 0.5478 0.0000
vn 0.2089 -0.9085 0.3619
vn 0.5614 -0.6699 0.4858
vn 0.7406 -0.2922 0.6052
vn 0.4840 -0.2512 0.8383
vn 0.1538 -0.2922 0.9439
vn 0.1400 -0.6699 0.7291
vn 0.4183 -0.5477 0.7246
vn 0.2089 0.9085 0.3619
vn 0.1400 0.6699 0.7291
vn 0.1538 0.2922 0.9439
vn 0.4840 0.2512 0.8383
vn 0.7406 0.2922 0.6052
vn 0.5614 0.6699 0.4858
vn 0.4183 0.5478 0.7246
vn -0.2089 -0.9085 0.3619
vn -0.1400 -0.6699 0.7291
vn -0.1538 -0.2922 0.9439
vn -0.4840 -0.2512 0.8383
vn -0.7406 -0.2922 0.6052
vn -0.5614 -0.6699 0.4858
vn -0.4183 -0.5477 0.7246
vn -0.2089 0.9085 0.3619
vn -0.5614 0.6699 0.4858
vn -0.7406 0.2922 0.6052
vn -0.4840 0.2512 0.8383
vn -0.1538 0.2922 0.9439
vn -0.1400 0.6699 0.7291
vn -0.4183 0.5478 0.7246
vn -0.4179 -0.9085 0.0000
vn -0.7014 -0.6699 0.2433
vn -0.8944 -0.2922 0.3388
vn -0.9679 -0.2512 0.0000
vn -0.8944 -0.2922 -0.3388
vn -0.7014 -0.6699 -0.2433
vn -0.8366 -0.5478 0.0000
vn -0.4179 0.9085 0.0000
vn -0.7014 0.6699 -0.2433
vn -0.8944 0.2922 -0.3388
vn -0.9679 0.2512 0.0000
vn -0.8944 0.2922 0.3388
vn -0.7014 0.6699 0.2433
vn -0.8366 0.5478 0.0000
vn -0.2089 -0.9085 -0.3619
vn -0.5614 -0.6699 -0.4858
vn -0.7406 -0.2922 -0.6052
vn -0.4840 -0.2512 -0.8383
vn -0.1538 -0.2922 -0.9439
vn -0.1400 -0.6699 -0.7291
vn -0.4183 -0.5477 -0.7246
vn -0.2089 0.9085 -0.3619
vn -0.1400 0.6699 -0.7291
vn -0.1538 0.2922 -0.9439
vn -0.4840 0.2512 -0.8383
vn -0.7406 0.2922 -0.6052
vn -0.5614 0.6699 -0.4858
vn -0.4183 0.5477 -0.7246
vn 0.8256 -0.3018 -0.4767
vn 0.6124 -0.7071 -0.3536
vn 0.2345 -0.9626 -0.1354
vn 0.8256 0.3018 -0.4767
vn 0.6124 0.7071 -0.3536
vn 0.2345 0.9626 -0.1354
vn 0.1553 0.0000 -0.9879
vn 0.5000 0.0000 -0.8660
vn 0.7779 0.0000 -0.6284
vn 0.9332 -0.0000 0.3595
vn 1.0000 -0.0000 -0.0000
vn 0.9332 -0.0000 -0.3595
vn 0.8256 -0.3018 0.4767
vn 0.6124 -0.7071 0.3536
vn 0.2345 -0.9626 0.1354
vn 0.8256 0.3018 0.4767
vn 0.6124 0.7071 0.3536
vn 0.2345 0.9626 0.1354
vn 0.1553 0.0000 0.9879
vn 0.5000 0.0000 0.8660
vn 0.7779 0.0000 0.6284
vn -0.0000 -0.3018 0.9534
vn -0.0000 -0.7071 0.7071
vn -0.0000 -0.9626 0.2708
vn -0.0000 0.3018 0.9534
vn -0.0000 0.7071 0.7071
vn -0.0000 0.9626 0.2708
vn -0.7779 0.0000 0.6284
vn -0.5000 0.0000 0.8660
vn -0.1553 0.0000 0.9879
vn -0.8256 -0.3018 0.4767
vn -0.6124 -0.7071 0.3536
vn -0.2345 -0.9626 0.1354
vn -0.8256 0.3018 0.4767
vn -0.6124 0.7071 0.3536
vn -0.2345 0.9626 0.1354
vn -0.9332 0.0000 -0.3595
vn -1.0000 0.0000 0.0000
vn -0.9332 0.0000 0.3595
vn -0.8256 -0.3018 -0.4767
vn -0.6124 -0.7071 -0.3536
vn -0.2345 -0.9626 -0.1354
vn -0.8256 0.3018 -0.4767
vn -0.6124 0.7071 -0.3536
vn -0.2345 0.9626 -0.1354
vn -0.1553 0.0000 -0.9879
vn -0.5000 0.0000 -0.8660
vn -0.7779 0.0000 -0.6284
vn 0.0000 -0.3018 -0.9534
vn 0.0000 -0.7071 -0.7071
vn 0.0000 -0.9626 -0.2708
vn 0.0000 0.3018 -0.9534
vn 0.0000 0.7071 -0.7071
vn 0.0000 0.9626 -0.2708
vn 0.0000 -1.0000 0.0000
usemtl None
s off
f 123/1/1 134/2/1 15/3/1 2/4/1
f 51/5/2 62/6/2 87/7/2 74/8/2
f 75/9/3 86/10/3 111/11/3 98/12/3
f 99/13/4 110/14/4 135/15/4 122/16/4
f 27/17/5 38/18/5 63/19/5 50/20/5
f 37/21/6 13/22/6 133/23/6 109/24/6 85/25/6 61/26/6
f 3/27/7 14/28/7 39/29/7 26/30/7
f 1/31/8 4/32/8 6/33/8 5/34/8
f 4/35/9 8/36/9 9/37/9 6/38/9
f 2/4/10 7/39/10 9/40/10 8/41/10
f 7/39/11 11/42/11 12/43/11 9/40/11
f 3/27/12 10/44/12 12/45/12 11/46/12
f 10/44/13 5/47/13 6/48/13 12/45/13
f 6/38/14 9/49/14 12/43/14
f 13/22/15 16/50/15 18/51/15 17/52/15
f 16/53/16 20/54/16 21/55/16 18/56/16
f 14/28/17 19/57/17 21/58/17 20/59/17
f 19/60/18 23/61/18 24/62/18 21/63/18
f 15/3/19 22/64/19 24/65/19 23/66/19
f 22/64/20 17/67/20 18/68/20 24/65/20
f 18/56/21 21/69/21 24/70/21
f 25/71/22 28/72/22 30/73/22 29/74/22
f 28/75/23 32/76/23 33/77/23 30/78/23
f 26/30/24 31/79/24 33/80/24 32/81/24
f 31/79/25 35/82/25 36/83/25 33/80/25
f 27/17/26 34/84/26 36/85/26 35/86/26
f 34/84/27 29/87/27 30/88/27 36/85/27
f 30/78/28 33/89/28 36/83/28
f 37/21/29 40/90/29 42/91/29 41/92/29
f 40/93/30 44/94/30 45/95/30 42/96/30
f 38/18/31 43/97/31 45/98/31 44/99/31
f 43/97/32 47/100/32 48/101/32 45/98/32
f 39/29/33 46/102/33 48/103/33 47/104/33
f 46/102/34 41/105/34 42/106/34 48/103/34
f 42/107/35 45/108/35 48/101/35
f 49/109/36 52/110/36 54/111/36 53/112/36
f 52/113/37 56/114/37 57/115/37 54/116/37
f 50/20/38 55/117/38 57/118/38 56/119/38
f 55/117/39 59/120/39 60/121/39 57/118/39
f 51/5/40 58/122/40 60/123/40 59/124/40
f 58/122/41 53/125/41 54/126/41 60/123/41
f 54/127/42 57/128/42 60/121/42
f 61/26/43 64/129/43 66/130/43 65/131/43
f 64/132/44 68/133/44 69/134/44 66/135/44
f 62/6/45 67/136/45 69/137/45 68/138/45
f 67/136/46 71/139/46 72/140/46 69/137/46
f 63/19/47 70/141/47 72/142/47 71/143/47
f 70/141/48 65/144/48 66/145/48 72/142/48
f 66/135/49 69/146/49 72/140/49
f 73/147/50 76/148/50 78/149/50 77/150/50
f 76/151/51 80/152/51 81/153/51 78/154/51
f 74/8/52 79/155/52 81/156/52 80/157/52
f 79/155/53 83/158/53 84/159/53 81/156/53
f 75/9/54 82/160/54 84/161/54 83/162/54
f 82/160/55 77/163/55 78/164/55 84/161/55
f 78/154/56 81/165/56 84/159/56
f 85/25/57 88/166/57 90/167/57 89/168/57
f 88/169/58 92/170/58 93/171/58 90/172/58
f 86/10/59 91/173/59 93/174/59 92/175/59
f 91/173/60 95/176/60 96/177/60 93/174/60
f 87/7/61 94/178/61 96/179/61 95/180/61
f 94/178/62 89/181/62 90/182/62 96/179/62
f 90/172/63 93/183/63 96/177/63
f 97/184/64 100/185/64 102/186/64 101/187/64
f 100/188/65 104/189/65 105/190/65 102/191/65
f 98/12/66 103/192/66 105/193/66 104/194/66
f 103/192/67 107/195/67 108/196/67 105/193/67
f 99/13/68 106/197/68 108/198/68 107/199/68
f 106/197/69 101/200/69 102/201/69 108/198/69
f 102/202/70 105/203/70 108/196/70
f 109/24/71 112/204/71 114/205/71 113/206/71
f 112/207/72 116/208/72 117/209/72 114/210/72
f 110/14/73 115/211/73 117/212/73 116/213/73
f 115/211/74 119/214/74 120/215/74 117/212/74
f 111/11/75 118/216/75 120/217/75 119/218/75
f 118/216/76 113/219/76 114/220/76 120/217/76
f 114/210/77 117/221/77 120/215/77
f 121/222/78 124/223/78 126/224/78 125/225/78
f 124/226/79 128/227/79 129/228/79 126/229/79
f 122/16/80 127/230/80 129/231/80 128/232/80
f 127/230/81 131/233/81 132/234/81 129/231/81
f 123/1/82 130/235/82 132/236/82 131/237/82
f 130/235/83 125/238/83 126/239/83 132/236/83
f 126/229/84 129/240/84 132/234/84
f 133/23/85 136/241/85 138/242/85 137/243/85
f 136/244/86 140/245/86 141/246/86 138/247/86
f 134/2/87 139/248/87 141/249/87 140/250/87
f 139/248/88 143/251/88 144/252/88 141/249/88
f 135/15/89 142/253/89 144/254/89 143/255/89
f 142/253/90 137/256/90 138/257/90 144/254/90
f 138/258/91 141/259/91 144/252/91
f 3/27/92 26/30/92 32/81/92 10/44/92
f 10/44/93 32/81/93 28/260/93 5/47/93
f 5/34/94 28/72/94 25/71/94 1/31/94
f 39/29/95 14/28/95 20/59/95 46/102/95
f 46/102/96 20/59/96 16/261/96 41/105/96
f 41/92/97 16/50/97 13/22/97 37/21/97
f 2/4/98 15/3/98 23/66/98 7/39/98
f 7/39/99 23/66/99 19/262/99 11/42/99
f 11/46/100 19/57/100 14/28/100 3/27/100
f 38/18/101 27/17/101 35/86/101 43/97/101
f 43/97/102 35/86/102 31/79/102 47/104/102
f 47/104/103 31/79/103 26/30/103 39/29/103
f 27/17/104 50/20/104 56/119/104 34/84/104
f 34/84/105 56/119/105 52/263/105 29/87/105
f 29/74/106 52/110/106 49/109/106 25/71/106
f 63/19/107 38/18/107 44/99/107 70/141/107
f 70/141/108 44/99/108 40/264/108 65/144/108
f 65/131/109 40/90/109 37/21/109 61/26/109
f 62/6/110 51/5/110 59/124/110 67/136/110
f 67/136/111 59/124/111 55/117/111 71/143/111
f 71/143/112 55/117/112 50/20/112 63/19/112
f 51/5/113 74/8/113 80/157/113 58/122/113
f 58/122/114 80/157/114 76/265/114 53/125/114
f 53/112/115 76/148/115 73/147/115 49/109/115
f 87/7/116 62/6/116 68/138/116 94/178/116
f 94/178/117 68/138/117 64/266/117 89/181/117
f 89/168/118 64/129/118 61/26/118 85/25/118
f 86/10/119 75/9/119 83/162/119 91/173/119
f 91/173/120 83/162/120 79/155/120 95/180/120
f 95/180/121 79/155/121 74/8/121 87/7/121
f 75/9/122 98/12/122 104/194/122 82/160/122
f 82/160/123 104/194/123 100/267/123 77/163/123
f 77/150/124 100/185/124 97/184/124 73/147/124
f 111/11/125 86/10/125 92/175/125 118/216/125
f 118/216/126 92/175/126 88/268/126 113/219/126
f 113/206/127 88/166/127 85/25/127 109/24/127
f 110/14/128 99/13/128 107/199/128 115/211/128
f 115/211/129 107/199/129 103/192/129 119/218/129
f 119/218/130 103/192/130 98/12/130 111/11/130
f 99/13/131 122/16/131 128/232/131 106/197/131
f 106/197/132 128/232/132 124/269/132 101/200/132
f 101/187/133 124/223/133 121/222/133 97/184/133
f 135/15/134 110/14/134 116/213/134 142/253/134
f 142/253/135 116/213/135 112/270/135 137/256/135
f 137/243/136 112/204/136 109/24/136 133/23/136
f 134/2/137 123/1/137 131/237/137 139/248/137
f 139/248/138 131/237/138 127/230/138 143/255/138
f 143/255/139 127/230/139 122/16/139 135/15/139
f 123/1/140 2/4/140 8/41/140 130/235/140
f 130/235/141 8/41/141 4/271/141 125/238/141
f 125/225/142 4/32/142 1/31/142 121/222/142
f 15/3/143 134/2/143 140/250/143 22/64/143
f 22/64/144 140/250/144 136/272/144 17/67/144
f 17/52/145 136/241/145 133/23/145 13/22/145
f 1/31/146 25/71/146 49/109/146 73/147/146 97/184/146 121/222/146
